<svg id="7d4a092e-6eb6-4563-b658-674c2aa92c9d" data-name="Ebene 1" xmlns="http://www.w3.org/2000/svg" viewBox="0 0 345.26551 165.68911"><title>IAA_Logo_2019_white_RGB</title><path d="M50.24762,115.44149V50.24762H60.7373v65.19387Zm82.82091-14.94625-3.17327-9.28351h-12.415l-14.876-40.96411H91.93277L68.34815,115.44149H79.00034L84.381,100.49524h25.6598l5.3166,14.94625h10.92087l-5.44348-14.94625ZM87.87088,91.22817l9.44231-26.43312L106.636,91.21173Zm112.20371,9.26707-3.17327-9.28351h-12.415l-14.876-40.96411H158.93883l-23.58462,65.19387H146.0064l5.38061-14.94625H177.0468l5.31661,14.94625h10.92087l-5.44349-14.94625Zm-45.19765-9.26707,9.4423-26.43312L173.642,91.21173Zm77.18669-22.21336h8.9522v3.30184l-14.00825.02951V68.8074l8.14888-7.198c1.9034-1.69519,2.55834-2.94364,2.55834-4.34208a3.536,3.536,0,0,0-3.71825-3.747,3.72529,3.72529,0,0,0-3.83632,3.9855h-3.6281c0-4.49126,3.033-7.257,7.49473-7.257,4.69867,0,7.34556,3.18217,7.34556,7.01848,0,2.8551-1.30829,4.61012-3.77728,6.8406Zm31.10614-7.46442c0,6.69142-3.77728,11.18267-9.458,11.18267-5.88889,0-9.45717-4.55029-9.45717-11.2425-.08934-6.57255,3.86583-11.33105,9.45717-11.2417C259.54087,50.24886,263.16977,54.859,263.16977,61.55039Zm-3.65842-.02951c0-4.96671-2.14112-7.971-5.73971-7.971-3.68794,0-5.88889,2.974-5.88889,8.0005,0,4.90688,2.17144,7.88084,5.82906,7.91116C257.37023,69.46155,259.51135,66.42775,259.51135,61.52088Zm6.48082-8.47675,4.10435-2.40837h3.59859v21.7104h-3.59859V54.35321l-4.10435,2.23047Zm19.21029,19.68893a9.286,9.286,0,0,1-6.57255-2.43868l2.17064-2.55834a7.03956,7.03956,0,0,0,4.61012,1.60664,5.50873,5.50873,0,0,0,4.34208-1.84436,7.089,7.089,0,0,0,1.66568-4.729,6.15988,6.15988,0,0,1-5.56182,2.8551c-4.40191,0-7.79229-2.974-7.79229-7.4349a7.73626,7.73626,0,0,1,8.0005-7.94067c6.06678,0,8.92188,4.93719,8.92188,10.97446C294.9867,67.55815,291.89388,72.73306,285.20246,72.73306Zm4.13387-17.99295A4.59966,4.59966,0,0,0,282.972,61.3717a4.61554,4.61554,0,0,0,3.24121,1.21974,4.30293,4.30293,0,0,0,4.43142-4.52078A4.36516,4.36516,0,0,0,289.33633,54.74011ZM200.07459,50.633l5.04306,10.85656-5.04306,10.85656h3.56355L208.6814,61.4896,203.63814,50.633Zm7.14275,0,5.04307,10.85656-5.04307,10.85656h3.56356l5.04326-10.85656L210.7809,50.633Z" fill="#fff"/></svg>