<svg xmlns="http://www.w3.org/2000/svg" viewBox="0 0 643.97418 549.97795"><title>IAA_Logo_claim_1_date_DE_white_RGB</title><path d="M222.17882,256.33575l6.05635,13.03741-6.05635,13.03741h-4.27939l6.05611-13.03741-6.05611-13.03741Zm4.29819,0,6.05612,13.03741L226.477,282.41057h4.2794l6.05634-13.03741-6.05634-13.03741ZM258.634,282.41416h-8.96353V256.3439H258.634a13.03532,13.03532,0,1,1,0,26.07026Zm-.07147-21.92637h-4.4639v17.81985h4.4639c5.17864,0,8.49894-3.5721,8.49894-8.89206C267.06143,264.16547,263.66965,260.48779,258.56249,260.48779Zm27.36,4.32095v3.8921a7.58343,7.58343,0,0,0-1.96392-.25016c-3.00029,0-4.71405,1.96392-4.71405,5.25011v8.71337h-4.28521V264.80874h3.92784l.25016,2.07113c.71474-1.5367,2.57145-2.3213,4.714-2.3213A7.64563,7.64563,0,0,1,285.92253,264.80874Zm5.10879-8.78485a2.67808,2.67808,0,0,1,0,5.3557,2.69807,2.69807,0,0,1-2.67866-2.67866A2.652,2.652,0,0,1,291.03132,256.02389Zm2.10687,8.78485v17.60542h-4.21373V264.80874Zm20.93061,0-7.357,17.60542h-4.178l-7.03535-17.60542h4.57111l4.64258,12.60547,4.96422-12.60547Zm4.61009-8.78485a2.67808,2.67808,0,0,1,0,5.3557,2.69807,2.69807,0,0,1-2.67866-2.67866A2.652,2.652,0,0,1,318.67889,256.02389Zm2.10687,8.78485v17.60542H316.572V264.80874Zm20.71456,17.60542h-4.21373V272.45q0-2.517-1.17933-3.42752a4.27357,4.27357,0,0,0-6.92814,3.57047v9.82122h-4.21373V264.80874H328.929l.14295,1.89244a6.36565,6.36565,0,0,1,5.28585-2.4285c4.53537,0,7.14256,2.60719,7.14256,7.28551Zm18.07489,7.53567a15.601,15.601,0,0,1-6.78519,1.35639c-5.679,0-8.96353-1.42786-8.96353-4.57111a3.87448,3.87448,0,0,1,2.4285-3.67768,3.68514,3.68514,0,0,1-1.67965-3.25046,3.91679,3.91679,0,0,1,2.46424-3.67768,6.4696,6.4696,0,0,1-1.99965-4.82126c0-4.14227,3.25045-7.03535,7.96451-7.03535a9.8826,9.8826,0,0,1,4.14226.85769,4.679,4.679,0,0,1,4.39242-2.5,3.68687,3.68687,0,0,1,.679.03574v3.46326a3.09572,3.09572,0,0,0-.64327-.03574,3.13566,3.13566,0,0,0-2.21408.75048,6.55256,6.55256,0,0,1,1.53508,4.42816c0,4.178-3.14163,6.99961-7.85568,6.99961a9.55433,9.55433,0,0,1-3.32193-.5718c-1.03476.03574-1.678.53606-1.678,1.42787,0,.679.5718,1.28653,1.85671,1.28653h6.21339c3.89373,0,6.17929,1.96392,6.17929,5.25012A4.39342,4.39342,0,0,1,359.57521,289.94983Zm-4.14227-6.07207h-6.07207l-.53443-.03574a1.81354,1.81354,0,0,0-1.358,1.78686c0,1.71376,1.85671,2.10687,5.4288,2.10687,3.46325,0,5.28423-.39311,5.28423-2.07113C358.18146,284.41382,357.03949,283.87776,355.43294,283.87776Zm-2.46424-8.96353a3.57931,3.57931,0,0,0,3.82063-3.57047,3.67137,3.67137,0,0,0-3.82063-3.715,3.64876,3.64876,0,1,0,0,7.28551Zm30.82331,7.49993a14.18545,14.18545,0,0,1-3.07177.39311c-3.46326,0-5.6416-1.85671-5.6416-5.82191V268.3792h-2.7144v-3.57046h2.7144v-5.50028h4.178v5.50028h4.07078v3.57046h-4.07078v7.85731c0,1.89244.74885,2.85572,2.21408,2.85572a5.62289,5.62289,0,0,0,1.78523-.35575Zm20.53587-8.82058c0,5.39144-3.71342,9.24943-9.14222,9.24943-5.46291,0-9.178-3.858-9.178-9.24943,0-5.46454,3.715-9.28517,9.178-9.28517C400.61446,264.30841,404.32788,268.16478,404.32788,273.59358Zm-4.28521-.03574c0-3.25045-1.96392-5.46453-4.857-5.46453-2.96293,0-4.92685,2.21408-4.92685,5.46453,0,3.24884,1.96392,5.49865,4.92685,5.49865C398.07875,279.05649,400.04267,276.80668,400.04267,273.55784Zm34.43113,8.85632h-4.10652V271.84408c0-2.46424-1.35639-3.89372-3.499-3.89372-2.24982,0-3.78652,1.53669-3.78652,4.28521v10.17859h-4.14226V271.84408c0-2.46424-1.32065-3.89372-3.46326-3.89372-2.24982,0-3.82225,1.53669-3.82225,4.28521v10.17859h-4.21374V264.80874h3.92784l.14295,1.678a5.74486,5.74486,0,0,1,5-2.24982,5.95734,5.95734,0,0,1,5.75043,3.2862c.85607-2.037,2.9272-3.2862,5.67734-3.2862,3.96357,0,6.535,2.57145,6.535,6.96387Zm21.28961-8.82058c0,5.39144-3.71342,9.24943-9.14222,9.24943-5.46291,0-9.178-3.858-9.178-9.24943,0-5.46454,3.715-9.28517,9.178-9.28517C452.05,264.30841,455.76341,268.16478,455.76341,273.59358Zm-4.28521-.03574c0-3.25045-1.96392-5.46453-4.857-5.46453-2.96294,0-4.92686,2.21408-4.92686,5.46453,0,3.24884,1.96392,5.49865,4.92686,5.49865C449.51428,279.05649,451.4782,276.80668,451.4782,273.55784Zm18.2893-8.7491v3.8921a7.58343,7.58343,0,0,0-1.96392-.25016c-3.0003,0-4.714,1.96392-4.714,5.25011v8.71337h-4.28522V264.80874h3.92784l.25016,2.07113c.71475-1.5367,2.57146-2.3213,4.71406-2.3213A7.64563,7.64563,0,0,1,469.7675,264.80874Zm13.53626,0v3.8921a7.58341,7.58341,0,0,0-1.96391-.25016c-3.0003,0-4.71406,1.96392-4.71406,5.25011v8.71337h-4.28521V264.80874h3.92784l.25016,2.07113c.71474-1.5367,2.57145-2.3213,4.714-2.3213A7.64563,7.64563,0,0,1,483.30376,264.80874Zm19.64407,8.78484c0,5.39144-3.71341,9.24943-9.14221,9.24943-5.46292,0-9.178-3.858-9.178-9.24943,0-5.46454,3.715-9.28517,9.178-9.28517C499.23442,264.30841,502.94783,268.16478,502.94783,273.59358Zm-4.28521-.03574c0-3.25045-1.96392-5.46453-4.857-5.46453-2.96294,0-4.92686,2.21408-4.92686,5.46453,0,3.24884,1.96392,5.49865,4.92686,5.49865C496.6987,279.05649,498.66262,276.80668,498.66262,273.55784Zm32.71738-8.7491-6.10781,17.60542h-3.96358l-3.74915-11.35629-3.858,11.35629H509.595l-5.89176-17.60542h4.57111l3.42751,11.49924,3.71505-11.49924h4.32094l3.57047,11.64219,3.60783-11.64219ZM87.97272,230.29209V99.90435h20.97936V230.29209Zm165.64182-29.8925-6.34654-18.567H222.43793L192.68584,99.90435H171.343L124.17378,230.29209h21.30439l10.76121-29.8925H207.559l10.63322,29.8925h21.84174l-10.887-29.8925Zm-90.3953-18.53414,18.88462-52.86624,18.64555,52.83336Zm224.40741,18.53414-6.34654-18.567H356.45L326.698,99.90435H305.35514L258.1859,230.29209h21.30438l10.76122-29.8925h51.31959l10.63321,29.8925H374.046l-10.887-29.8925Zm-90.39529-18.53414L316.116,128.99921l18.64556,52.83336ZM265.03412,404.40521v3.40039h-14.498v-3.40039h5.44141V385.79l-4.68945,2.543v-3.832l4.68945-2.7207h3.86524v22.625Zm9.74024-.21485H286.0517v3.58008l-16.64648.03516v-3.90235l9.916-8.80469c2.32617-2.041,3.18555-3.61718,3.18555-5.4414a4.49115,4.49115,0,0,0-4.76172-4.76172,4.74482,4.74482,0,0,0-4.93945,5.04687h-3.90235c0-5.26171,3.65235-8.627,8.87891-8.627,5.584,0,8.69726,3.79492,8.69726,8.3418,0,3.32812-1.60937,5.54687-4.50976,8.16015Zm18.36718-1.18164a2.66753,2.66753,0,1,1,0,5.334,2.667,2.667,0,1,1,0-5.334Zm35.834-6.69336v3.43555H300.58881v-3.43555Zm10.27929,7.875h11.27735v3.58008l-16.64649.03516v-3.90235l9.916-8.80469c2.32617-2.041,3.18555-3.61718,3.18555-5.4414a4.49115,4.49115,0,0,0-4.76172-4.76172,4.74483,4.74483,0,0,0-4.93946,5.04687h-3.90234c0-5.26171,3.65234-8.627,8.87891-8.627,5.584,0,8.69726,3.79492,8.69726,8.3418,0,3.32812-1.60937,5.54687-4.50976,8.16015Zm21.19532,0h11.27734v3.58008l-16.64648.03516v-3.90235l9.916-8.80469c2.32617-2.041,3.18555-3.61718,3.18555-5.4414a4.49114,4.49114,0,0,0-4.76172-4.76172,4.74482,4.74482,0,0,0-4.93945,5.04687H354.579c0-5.26171,3.65235-8.627,8.87891-8.627,5.584,0,8.69727,3.79492,8.69727,8.3418,0,3.32812-1.60938,5.54687-4.50977,8.16015Zm18.36718-1.18164a2.66753,2.66753,0,1,1,0,5.334,2.667,2.667,0,1,1,0-5.334Zm34.082-15.35742-3.79493,1.03906c-.46484-2.39844-2.36328-3.72265-5.04687-3.72265-2.90039,0-4.72461,1.53906-4.72461,3.83007,0,1.86133,1.2168,3.00586,3.36328,3.543l4.29688,1.10938c4.40234,1.11133,6.47851,3.61718,6.47851,7.16015,0,4.50977-3.543,7.66016-9.16406,7.66016a10.7528,10.7528,0,0,1-6.33594-1.75391,7.06014,7.06014,0,0,1-3.043-4.832l3.79492-1.002c.32227,2.43359,2.50586,3.86523,5.69141,3.86523,3.15039,0,5.084-1.43164,5.084-3.75781,0-1.82617-1.10938-3.00781-3.36524-3.61523l-4.29687-1.03907c-4.40235-1.03711-6.47852-3.65039-6.47852-7.19531,0-4.50976,3.50781-7.625,8.76953-7.625C408.88959,381.31536,412.18256,383.82122,412.89936,387.6513Zm20.58593,12.85156H419.77436a4.7029,4.7029,0,0,0,5.084,4.47461,4.9947,4.9947,0,0,0,4.76172-2.89844l3.18555,1.28711a8.31054,8.31054,0,0,1-7.98243,4.9043c-5.11914,0-8.66406-3.6875-8.66406-9.23438,0-5.47851,3.47266-9.30859,8.73438-9.30859,5.1914,0,8.59179,3.6875,8.59179,9.27149Zm-3.86523-2.7207c-.17969-3.18555-1.9707-4.86719-4.79688-4.86719-2.82812,0-4.68945,1.75391-5.01171,4.86719Zm11.2793,7.55273v10.49024H437.247V390.22942h3.36524l.17968,2.47071c1.03711-1.82617,3.293-2.97266,6.15625-2.97266,5.1543,0,8.55664,3.58008,8.55664,9.34375,0,5.69141-3.58007,9.19922-8.44921,9.19922A7.11743,7.11743,0,0,1,440.89936,405.33489Zm5.51171-12.16992c-3.25781,0-5.334,2.32617-5.334,5.79883,0,3.543,2.14844,5.834,5.334,5.834,3.1875,0,5.29883-2.291,5.29883-5.834C451.7099,395.41888,449.59857,393.165,446.41107,393.165Zm26.83732,9.84375a2.66753,2.66753,0,1,1,0,5.334,2.667,2.667,0,1,1,0-5.334Zm23.28573,1.18164h11.27735v3.58008l-16.64649.03516v-3.90235l9.916-8.80469c2.32617-2.041,3.18554-3.61718,3.18554-5.4414a4.49114,4.49114,0,0,0-4.76172-4.76172,4.74482,4.74482,0,0,0-4.93945,5.04687H490.663c0-5.26171,3.65234-8.627,8.8789-8.627,5.584,0,8.69727,3.79492,8.69727,8.3418,0,3.32812-1.60938,5.54687-4.50977,8.16015Zm38.19922-9.30664c0,8.01758-4.47461,13.38672-11.3125,13.38672-7.08789,0-11.31055-5.51172-11.31055-13.49414,0-7.94727,4.50977-13.46094,11.27539-13.46094C530.43842,381.31536,534.73334,386.89935,534.73334,394.88372Zm-3.9375-.07226a11.68368,11.68368,0,0,0-1.96875-7.19532,6.337,6.337,0,0,0-5.36914-2.68554,6.44348,6.44348,0,0,0-5.47852,2.68554,11.79547,11.79547,0,0,0-1.96875,7.23047c0,6.05078,2.82813,9.84375,7.44727,9.84375C528.04,404.69036,530.79584,400.82513,530.79584,394.81146Zm24.20313,9.59375v3.40039H540.50092v-3.40039h5.4414V385.79l-4.68945,2.543v-3.832l4.68945-2.7207h3.86524v22.625Zm12.42382,3.86523A11.10788,11.10788,0,0,1,559.583,405.372l2.36328-2.793a8.2562,8.2562,0,0,0,5.6543,2.00391c4.79687,0,7.48242-3.68555,7.55469-8.627a7.72267,7.72267,0,0,1-7.01758,3.75976c-5.26172-.07226-9.19922-3.54492-9.19922-8.94922a9.2318,9.2318,0,0,1,9.48633-9.45117c7.23047,0,10.5957,5.8711,10.5957,13.13867C579.05561,402.079,575.19037,408.37786,567.42279,408.27044Zm1.14453-23.41016a5.76524,5.76524,0,1,0,5.65625,5.79883A5.51546,5.51546,0,0,0,568.56732,384.86028ZM254.00873,428.50286v7.80274H263.997v3.58007h-9.98828v10.88282h-3.97266V424.7431H265.8935v3.75976Zm24.81055,4.68945v3.50782a7.51145,7.51145,0,0,0-1.9336-.25c-3.00586,0-4.72461,2.0039-4.72461,5.26172v9.05664h-3.86523V433.19231h3.543l.21484,2.14844c.7168-1.57617,2.61328-2.39844,4.76172-2.39844A8.473,8.473,0,0,1,278.81928,433.19231Zm14.03515,17.57618a14.94039,14.94039,0,0,1-.28711-2.1836,6.48524,6.48524,0,0,1-5.61914,2.64844c-3.83007,0-6.373-2.18359-6.373-5.65625,0-3.43555,2.50586-5.51172,6.4082-5.51172H292.497v-.67969c0-2.4707-1.53906-3.58007-3.9375-3.58007a4.77259,4.77259,0,0,0-4.61914,2.64843l-2.791-1.61132c1.43164-2.82813,4.15234-4.15235,7.58789-4.15235a8.38,8.38,0,0,1,5.37109,1.6836c1.39453,1.10937,2.11133,2.93554,2.11133,5.4414v7.19531a13.41757,13.41757,0,0,0,.32226,3.75782Zm-.35742-8.01758h-4.65429c-2.1836,0-3.4004,1.03711-3.4004,2.791,0,1.82618,1.28907,2.75586,3.43555,2.75586,2.61328,0,4.61914-1.71679,4.61914-5.11914Zm24.27149,8.01758h-3.79493v-10.0586c0-1.71875-.39257-2.90039-1.21679-3.58008a4.27958,4.27958,0,0,0-2.82813-1.002,4.40849,4.40849,0,0,0-4.54687,4.79688v9.84375h-3.793V433.19231h3.543l.14258,2.041a6.3073,6.3073,0,0,1,5.4414-2.543c4.332,0,7.05274,2.543,7.05274,7.26758Zm4.58593,0V424.27825h3.793v16.57422l7.375-7.66016h4.76172l-7.51758,7.875,7.19532,9.70118h-4.582l-5.15625-7.05274-2.07617,2.1836v4.86914Zm23.27149-20.082v2.50585h4.15234v3.1504h-4.15234v14.42578h-3.83008V436.34271h-2.541v-3.1504h2.541v-2.50585c0-4.332,2.32617-6.40821,6.04883-6.40821a9.595,9.595,0,0,1,2.00586.21485v3.36523a6.59955,6.59955,0,0,0-1.46875-.14258C345.37787,427.71575,344.62592,428.79,344.62592,430.68646Zm20.332,20.082a13.877,13.877,0,0,1-.32031-2.11133c-1.00391,1.68164-2.97266,2.57617-5.3711,2.57617a7.70507,7.70507,0,0,1-5.04687-1.7168c-1.39649-1.18164-2.11133-3.08007-2.11133-5.69336v-10.666h3.83008v10.02148c0,1.71875.39258,2.93555,1.2168,3.61719a4.42707,4.42707,0,0,0,2.90039,1.03711c2.43359,0,4.50976-1.64648,4.50976-4.79688v-9.84375h3.83008v14.35352a18.13906,18.13906,0,0,0,.32227,3.22266Zm18.69141-17.57618v3.50782a7.51145,7.51145,0,0,0-1.9336-.25c-3.00586,0-4.72461,2.0039-4.72461,5.26172v9.05664h-3.86523V433.19231h3.543l.21484,2.14844c.7168-1.57617,2.61328-2.39844,4.76172-2.39844A8.473,8.473,0,0,1,383.64936,433.19231Zm25.8788-8.4121h3.83008l-10.20313,25.98828H399.3973Zm30.89151,0v25.98828h-3.9375V433.69231l-6.83789,17.07618h-3.79492l-6.83594-17.00391v17.00391h-3.83008V424.7431h3.83008l8.73438,21.37109,8.73437-21.37109Zm16.58008,25.98828a14.94039,14.94039,0,0,1-.28711-2.1836,6.48525,6.48525,0,0,1-5.61914,2.64844c-3.83008,0-6.373-2.18359-6.373-5.65625,0-3.43555,2.50586-5.51172,6.40821-5.51172h5.51367v-.67969c0-2.4707-1.53906-3.58007-3.9375-3.58007a4.77257,4.77257,0,0,0-4.61914,2.64843l-2.791-1.61132c1.43164-2.82813,4.15235-4.15235,7.58789-4.15235a8.38007,8.38007,0,0,1,5.3711,1.6836c1.39453,1.10937,2.11132,2.93554,2.11132,5.4414v7.19531a13.41744,13.41744,0,0,0,.32227,3.75782Zm-.35742-8.01758H451.988c-2.18359,0-3.40039,1.03711-3.40039,2.791,0,1.82618,1.28906,2.75586,3.43555,2.75586,2.61328,0,4.61914-1.71679,4.61914-5.11914Zm10.20312-18.25781a2.5235,2.5235,0,1,1-2.541,2.541A2.498,2.498,0,0,1,466.84545,424.4931Zm1.89649,8.69921v17.57618h-3.793V433.19231Zm20.98047,17.57618h-3.79493v-10.0586c0-1.71875-.39257-2.90039-1.21679-3.58008a4.27958,4.27958,0,0,0-2.82813-1.002,4.40849,4.40849,0,0,0-4.54687,4.79688v9.84375h-3.793V433.19231h3.543l.14258,2.041a6.3073,6.3073,0,0,1,5.4414-2.543c4.332,0,7.05274,2.543,7.05274,7.26758Zm-94.56844-3.3108c-1.10156,0-2.41211-.52929-2.41211-3.05468v-8.05664h4.07031v-3.17188h-4.07031v-5.50195h-3.78125v5.50195h-2.71289v3.17188h2.71289v8.80468c0,3.67774,1.88281,5.623,5.44336,5.623a13.75705,13.75705,0,0,0,2.84765-.34766l-.47656-3.25781A5.58184,5.58184,0,0,1,395.154,447.45769Zm70.97-42.83764c-1.10156,0-2.41211-.5293-2.41211-3.05469v-8.05664h4.07031v-3.17187h-4.07031v-5.502h-3.78125v5.502H457.2177v3.17187h2.71289v8.80469c0,3.67773,1.88281,5.62305,5.44336,5.62305a13.75705,13.75705,0,0,0,2.84765-.34766L467.745,404.331A5.58184,5.58184,0,0,1,466.124,404.62005Z" fill="#fff"/></svg>