<svg xmlns="http://www.w3.org/2000/svg" viewBox="0 0 541.41732 415.55906"><title>IAA_Logo_claim_2_black_RGB</title><path d="M100.49524,230.883V100.49524H121.4746V230.883Zm165.64182-29.8925-6.34654-18.567H234.96045l-29.75209-81.92822H183.86555L136.6963,230.883h21.30439l10.76121-29.8925h51.31959L230.7147,230.883h21.84175l-10.887-29.8925Zm-90.3953-18.53414,18.88462-52.86625,18.64555,52.83337Zm224.40741,18.53414-6.34654-18.567H368.97256l-29.75208-81.92822H317.87766L270.70842,230.883H292.0128l10.76122-29.8925h51.31959l10.63321,29.8925h21.84174l-10.887-29.8925Zm-90.39529-18.53414,18.88461-52.86625,18.64556,52.83337Zm-52.88945,74.51025,6.05634,13.03741-6.05634,13.03741H252.585l6.05612-13.03741L252.585,256.96659Zm4.29819,0,6.05611,13.03741-6.05611,13.03741h4.2794l6.05634-13.03741L265.442,256.96659ZM293.31957,283.045H284.356V256.97474h8.96353a13.03532,13.03532,0,1,1,0,26.07026Zm-.07148-21.92637H288.7842v17.81985h4.46389c5.17864,0,8.499-3.5721,8.499-8.89206C301.747,264.79631,298.35526,261.11863,293.24809,261.11863Zm27.36005,4.32094v3.89211a7.58343,7.58343,0,0,0-1.96392-.25016c-3.0003,0-4.71405,1.96392-4.71405,5.25011V283.045H309.645V265.43957h3.92784l.25016,2.07114c.71475-1.5367,2.57145-2.3213,4.71406-2.3213A7.646,7.646,0,0,1,320.60814,265.43957Zm5.10879-8.78484a2.67808,2.67808,0,0,1,0,5.3557,2.69807,2.69807,0,0,1-2.67866-2.67866A2.652,2.652,0,0,1,325.71693,256.65473Zm2.10687,8.78484V283.045h-4.21374V265.43957Zm20.93061,0-7.357,17.60543h-4.178l-7.03535-17.60543h4.57111l4.64258,12.60548,4.96421-12.60548Zm4.61009-8.78484a2.67808,2.67808,0,0,1,0,5.3557,2.69807,2.69807,0,0,1-2.67866-2.67866A2.652,2.652,0,0,1,353.3645,256.65473Zm2.10687,8.78484V283.045h-4.21374V265.43957ZM376.18593,283.045h-4.21374v-9.96417q0-2.517-1.17932-3.42752a4.27356,4.27356,0,0,0-6.92814,3.57047V283.045H359.651V265.43957h3.96358l.14295,1.89245a6.36565,6.36565,0,0,1,5.28585-2.4285c4.53537,0,7.14256,2.60719,7.14256,7.2855Zm18.07488,7.53567a15.601,15.601,0,0,1-6.78519,1.35639c-5.679,0-8.96353-1.42787-8.96353-4.57111a3.87449,3.87449,0,0,1,2.42851-3.67768,3.68512,3.68512,0,0,1-1.67965-3.25046,3.91678,3.91678,0,0,1,2.46424-3.67768,6.46963,6.46963,0,0,1-1.99966-4.82127c0-4.14226,3.25046-7.03534,7.96452-7.03534a9.88264,9.88264,0,0,1,4.14226.85769,4.679,4.679,0,0,1,4.39242-2.5,3.68692,3.68692,0,0,1,.679.03574v3.46325a3.09657,3.09657,0,0,0-.64327-.03573,3.13565,3.13565,0,0,0-2.21408.75048,6.55256,6.55256,0,0,1,1.53507,4.42816c0,4.178-3.14162,6.99961-7.85568,6.99961a9.55441,9.55441,0,0,1-3.32193-.5718c-1.03475.03574-1.678.53606-1.678,1.42787,0,.679.57179,1.28653,1.85671,1.28653h6.21339c3.89373,0,6.17928,1.96392,6.17928,5.25012A4.39342,4.39342,0,0,1,394.26081,290.58067Zm-4.14226-6.07207h-6.07207l-.53443-.03574a1.81354,1.81354,0,0,0-1.358,1.78686c0,1.71376,1.8567,2.10687,5.4288,2.10687,3.46325,0,5.28422-.39311,5.28422-2.07113C392.86706,285.04466,391.7251,284.5086,390.11855,284.5086Zm-2.46424-8.96353a3.57931,3.57931,0,0,0,3.82063-3.57047,3.67138,3.67138,0,0,0-3.82063-3.715,3.64876,3.64876,0,1,0,0,7.28551Zm-94.49638,39.38654a14.18545,14.18545,0,0,1-3.07177.39311c-3.46326,0-5.6416-1.8567-5.6416-5.82191v-8.60615h-2.7144v-3.57047h2.7144v-5.50028h4.178v5.50028h4.07079v3.57047h-4.07079v7.8573c0,1.89244.74885,2.85572,2.21408,2.85572a5.62312,5.62312,0,0,0,1.78523-.35574ZM313.6938,306.111c0,5.39144-3.71341,9.24943-9.14221,9.24943-5.46292,0-9.178-3.858-9.178-9.24943,0-5.46453,3.715-9.28516,9.178-9.28516C309.98039,296.82587,313.6938,300.68223,313.6938,306.111Zm-4.28521-.03573c0-3.25046-1.96392-5.46454-4.857-5.46454-2.96294,0-4.92686,2.21408-4.92686,5.46454,0,3.24883,1.96392,5.49865,4.92686,5.49865C307.44467,311.574,309.40859,309.32413,309.40859,306.0753Zm34.43114,8.85631H339.7332V304.36154c0-2.46424-1.35639-3.89373-3.499-3.89373-2.24982,0-3.78652,1.5367-3.78652,4.28521v10.17859h-4.14226V304.36154c0-2.46424-1.32065-3.89373-3.46326-3.89373-2.24981,0-3.82225,1.5367-3.82225,4.28521v10.17859h-4.21373V297.32619H320.734l.14295,1.678a5.74486,5.74486,0,0,1,5-2.24982,5.95734,5.95734,0,0,1,5.75043,3.2862c.85607-2.037,2.9272-3.2862,5.67734-3.2862,3.96357,0,6.535,2.57145,6.535,6.96388Zm21.2896-8.82058c0,5.39144-3.71342,9.24943-9.14222,9.24943-5.46291,0-9.17795-3.858-9.17795-9.24943,0-5.46453,3.715-9.28516,9.17795-9.28516C361.41591,296.82587,365.12933,300.68223,365.12933,306.111Zm-4.28521-.03573c0-3.25046-1.96392-5.46454-4.857-5.46454-2.96293,0-4.92685,2.21408-4.92685,5.46454,0,3.24883,1.96392,5.49865,4.92685,5.49865C358.8802,311.574,360.84412,309.32413,360.84412,306.0753Zm18.2893-8.74911v3.8921a7.58343,7.58343,0,0,0-1.96392-.25016c-3.00029,0-4.71405,1.96392-4.71405,5.25011v8.71337h-4.28521V297.32619h3.92784l.25016,2.07113c.71474-1.5367,2.57145-2.32129,4.71405-2.32129A7.64564,7.64564,0,0,1,379.13342,297.32619Zm13.53627,0v3.8921a7.58343,7.58343,0,0,0-1.96392-.25016c-3.0003,0-4.71406,1.96392-4.71406,5.25011v8.71337H381.7065V297.32619h3.92784l.25016,2.07113c.71474-1.5367,2.57145-2.32129,4.71406-2.32129A7.64569,7.64569,0,0,1,392.66969,297.32619Zm19.64407,8.78484c0,5.39144-3.71342,9.24943-9.14222,9.24943-5.46291,0-9.178-3.858-9.178-9.24943,0-5.46453,3.715-9.28516,9.178-9.28516C408.60034,296.82587,412.31376,300.68223,412.31376,306.111Zm-4.28521-.03573c0-3.25046-1.96392-5.46454-4.857-5.46454-2.96294,0-4.92686,2.21408-4.92686,5.46454,0,3.24883,1.96392,5.49865,4.92686,5.49865C406.06463,311.574,408.02855,309.32413,408.02855,306.0753Zm32.71737-8.74911-6.10781,17.60542h-3.96357l-3.74916-11.35629-3.858,11.35629h-4.10652l-5.89176-17.60542h4.57111l3.42752,11.49924,3.715-11.49924h4.32095l3.57046,11.64219,3.60783-11.64219Z"/></svg>