<svg xmlns="http://www.w3.org/2000/svg" viewBox="0 0 644.49255 383.52756"><title>IAA_Logo_claim_1_black_RGB</title><path d="M234.70134,256.92664l6.05635,13.03741-6.05635,13.03741H230.422l6.05611-13.03741L230.422,256.92664Zm4.29819,0,6.05611,13.03741-6.05611,13.03741h4.2794l6.05634-13.03741-6.05634-13.03741Zm32.15695,26.07841H262.193V256.93479h8.96353a13.03532,13.03532,0,1,1,0,26.07026Zm-.07147-21.92637h-4.4639v17.81984h4.4639c5.17864,0,8.49894-3.57209,8.49894-8.89205C279.584,264.75635,276.19217,261.07868,271.085,261.07868Zm27.36,4.32094v3.89211a7.58343,7.58343,0,0,0-1.96392-.25016c-3.00029,0-4.714,1.96391-4.714,5.25011v8.71337h-4.28521V265.39962h3.92784l.25016,2.07113c.71474-1.53669,2.57145-2.32129,4.714-2.32129A7.646,7.646,0,0,1,298.44505,265.39962Zm5.10879-8.78484a2.67808,2.67808,0,0,1,0,5.3557,2.69807,2.69807,0,0,1-2.67866-2.67866A2.652,2.652,0,0,1,303.55384,256.61478Zm2.10687,8.78484v17.60543H301.447V265.39962Zm20.93061,0-7.357,17.60543h-4.178L308.021,265.39962h4.57111l4.64258,12.60548,4.96422-12.60548Zm4.61009-8.78484a2.67808,2.67808,0,0,1,0,5.3557,2.69807,2.69807,0,0,1-2.67866-2.67866A2.652,2.652,0,0,1,331.20141,256.61478Zm2.10687,8.78484v17.60543h-4.21373V265.39962Zm20.71456,17.60543H349.8091v-9.96417q0-2.517-1.17932-3.42752a4.27356,4.27356,0,0,0-6.92814,3.57047v9.82122h-4.21373V265.39962h3.96357l.14295,1.89245a6.36565,6.36565,0,0,1,5.28585-2.4285c4.53537,0,7.14256,2.60718,7.14256,7.2855Zm18.07488,7.53567a15.60093,15.60093,0,0,1-6.78518,1.35639c-5.679,0-8.96353-1.42787-8.96353-4.57111a3.87448,3.87448,0,0,1,2.4285-3.67768,3.68514,3.68514,0,0,1-1.67965-3.25046,3.91678,3.91678,0,0,1,2.46424-3.67768,6.46963,6.46963,0,0,1-1.99965-4.82127c0-4.14226,3.25045-7.03534,7.96451-7.03534a9.8826,9.8826,0,0,1,4.14226.85769,4.679,4.679,0,0,1,4.39242-2.5,3.68692,3.68692,0,0,1,.679.03574v3.46325a3.09657,3.09657,0,0,0-.64327-.03573,3.13565,3.13565,0,0,0-2.21408.75048,6.55256,6.55256,0,0,1,1.53507,4.42816c0,4.178-3.14162,6.99961-7.85567,6.99961a9.55443,9.55443,0,0,1-3.32194-.5718c-1.03475.03574-1.678.53606-1.678,1.42787,0,.679.5718,1.28653,1.85671,1.28653h6.21339c3.89373,0,6.17928,1.96392,6.17928,5.25012A4.39341,4.39341,0,0,1,372.09772,290.54072Zm-4.14226-6.07207h-6.07207l-.53443-.03574a1.81354,1.81354,0,0,0-1.358,1.78686c0,1.71376,1.85671,2.10687,5.4288,2.10687,3.46325,0,5.28422-.39311,5.28422-2.07113C370.704,285.00471,369.562,284.46865,367.95546,284.46865Zm-2.46424-8.96353a3.57931,3.57931,0,0,0,3.82063-3.57047,3.67137,3.67137,0,0,0-3.82063-3.715,3.64876,3.64876,0,1,0,0,7.28551Zm30.82331,7.49993a14.18553,14.18553,0,0,1-3.07178.39311c-3.46325,0-5.64159-1.85671-5.64159-5.82191v-8.60616h-2.7144v-3.57047h2.7144v-5.50027h4.178v5.50027h4.07078v3.57047h-4.07078v7.8573c0,1.89245.74885,2.85573,2.21407,2.85573a5.6229,5.6229,0,0,0,1.78524-.35575Zm20.53587-8.82058c0,5.39144-3.71342,9.24943-9.14222,9.24943-5.46291,0-9.178-3.858-9.178-9.24943,0-5.46454,3.715-9.28517,9.178-9.28517C413.137,264.8993,416.8504,268.75567,416.8504,274.18447Zm-4.28521-.03574c0-3.25046-1.96392-5.46454-4.857-5.46454-2.96293,0-4.92685,2.21408-4.92685,5.46454,0,3.24883,1.96392,5.49865,4.92685,5.49865C410.60127,279.64738,412.56519,277.39756,412.56519,274.14873Zm34.43113,8.85632H442.8898V272.435c0-2.46424-1.35639-3.89373-3.499-3.89373-2.24981,0-3.78651,1.5367-3.78651,4.28522v10.17859H431.462V272.435c0-2.46424-1.32065-3.89373-3.46326-3.89373-2.24982,0-3.82225,1.5367-3.82225,4.28522v10.17859h-4.21374V265.39962h3.92784l.14295,1.678a5.74485,5.74485,0,0,1,5-2.24982A5.95734,5.95734,0,0,1,434.784,268.114c.85607-2.037,2.9272-3.28619,5.67733-3.28619,3.96358,0,6.535,2.57145,6.535,6.96387Zm21.28961-8.82058c0,5.39144-3.71342,9.24943-9.14222,9.24943-5.46291,0-9.178-3.858-9.178-9.24943,0-5.46454,3.715-9.28517,9.178-9.28517C464.57251,264.8993,468.28593,268.75567,468.28593,274.18447Zm-4.28522-.03574c0-3.25046-1.96391-5.46454-4.857-5.46454-2.96294,0-4.92686,2.21408-4.92686,5.46454,0,3.24883,1.96392,5.49865,4.92686,5.49865C462.0368,279.64738,464.00071,277.39756,464.00071,274.14873ZM482.29,265.39962v3.89211a7.58343,7.58343,0,0,0-1.96392-.25016c-3.0003,0-4.71406,1.96391-4.71406,5.25011v8.71337h-4.28521V265.39962h3.92784l.25016,2.07113c.71475-1.53669,2.57145-2.32129,4.71406-2.32129A7.646,7.646,0,0,1,482.29,265.39962Zm13.53626,0v3.89211a7.58343,7.58343,0,0,0-1.96392-.25016c-3.00029,0-4.71405,1.96391-4.71405,5.25011v8.71337H484.8631V265.39962h3.92784l.25016,2.07113c.71474-1.53669,2.57145-2.32129,4.71405-2.32129A7.646,7.646,0,0,1,495.82628,265.39962Zm19.64407,8.78485c0,5.39144-3.71341,9.24943-9.14221,9.24943-5.46292,0-9.178-3.858-9.178-9.24943,0-5.46454,3.715-9.28517,9.178-9.28517C511.75694,264.8993,515.47035,268.75567,515.47035,274.18447Zm-4.28521-.03574c0-3.25046-1.96392-5.46454-4.857-5.46454-2.96294,0-4.92686,2.21408-4.92686,5.46454,0,3.24883,1.96392,5.49865,4.92686,5.49865C509.22122,279.64738,511.18514,277.39756,511.18514,274.14873Zm32.71738-8.74911-6.10781,17.60543h-3.96358l-3.74915-11.3563-3.858,11.3563h-4.10652l-5.89176-17.60543h4.57111l3.42751,11.49925,3.715-11.49925h4.32095l3.57047,11.6422,3.60783-11.6422ZM100.49524,230.883V100.49524H121.4746V230.883Zm165.64182-29.8925-6.34654-18.567H234.96045l-29.75209-81.92822H183.86555L136.6963,230.883h21.30439l10.76121-29.8925h51.31959L230.7147,230.883h21.84175l-10.887-29.8925Zm-90.3953-18.53414,18.88462-52.86625,18.64555,52.83337Zm224.40741,18.53414-6.34654-18.567H368.97256l-29.75208-81.92822H317.87766L270.70842,230.883H292.0128l10.76122-29.8925h51.31959l10.63321,29.8925h21.84174l-10.887-29.8925Zm-90.39529-18.53414,18.88461-52.86625,18.64556,52.83337Z"/></svg>