<svg xmlns="http://www.w3.org/2000/svg" viewBox="0 0 643.97418 549.97795"><title>IAA_Logo_claim_1_date_EN_white_RGB</title><path d="M227.93378,256.33575l6.05634,13.03741-6.05634,13.03741h-4.2794l6.05611-13.03741-6.05611-13.03741Zm4.29819,0,6.05611,13.03741L232.232,282.41057h4.27939l6.05635-13.03741-6.05635-13.03741Zm32.15695,26.07841h-8.96354V256.3439h8.96354a13.03532,13.03532,0,1,1,0,26.07026Zm-.07148-21.92637h-4.4639v17.81985h4.4639c5.17864,0,8.499-3.5721,8.499-8.89206C272.81639,264.16547,269.42461,260.48779,264.31744,260.48779Zm27.36005,4.32095v3.8921a7.58343,7.58343,0,0,0-1.96392-.25016c-3.0003,0-4.71406,1.96392-4.71406,5.25011v8.71337H280.7143V264.80874h3.92784l.25016,2.07113c.71474-1.5367,2.57145-2.3213,4.71406-2.3213A7.64568,7.64568,0,0,1,291.67749,264.80874Zm5.10879-8.78485a2.67808,2.67808,0,0,1,0,5.3557,2.69807,2.69807,0,0,1-2.67866-2.67866A2.652,2.652,0,0,1,296.78628,256.02389Zm2.10687,8.78485v17.60542h-4.21374V264.80874Zm20.9306,0-7.357,17.60542h-4.178l-7.03535-17.60542h4.57111l4.64258,12.60547,4.96422-12.60547Zm4.6101-8.78485a2.67808,2.67808,0,0,1,0,5.3557,2.69807,2.69807,0,0,1-2.67866-2.67866A2.652,2.652,0,0,1,324.43385,256.02389Zm2.10687,8.78485v17.60542H322.327V264.80874Zm20.71456,17.60542h-4.21374V272.45q0-2.517-1.17933-3.42752a4.27356,4.27356,0,0,0-6.92813,3.57047v9.82122h-4.21374V264.80874h3.96358l.14295,1.89244a6.36564,6.36564,0,0,1,5.28585-2.4285c4.53537,0,7.14256,2.60719,7.14256,7.28551Zm18.07488,7.53567a15.601,15.601,0,0,1-6.78519,1.35639c-5.679,0-8.96353-1.42786-8.96353-4.57111a3.8745,3.8745,0,0,1,2.4285-3.67768,3.68513,3.68513,0,0,1-1.67964-3.25046,3.91679,3.91679,0,0,1,2.46424-3.67768,6.46961,6.46961,0,0,1-1.99966-4.82126c0-4.14227,3.25046-7.03535,7.96451-7.03535a9.88265,9.88265,0,0,1,4.14227.85769,4.679,4.679,0,0,1,4.39242-2.5,3.68692,3.68692,0,0,1,.679.03574v3.46326a3.09577,3.09577,0,0,0-.64327-.03574,3.13563,3.13563,0,0,0-2.21408.75048,6.55261,6.55261,0,0,1,1.53507,4.42816c0,4.178-3.14162,6.99961-7.85568,6.99961a9.55433,9.55433,0,0,1-3.32193-.5718c-1.03475.03574-1.678.53606-1.678,1.42787,0,.679.57179,1.28653,1.85671,1.28653h6.21339c3.89373,0,6.17928,1.96392,6.17928,5.25012A4.39342,4.39342,0,0,1,365.33016,289.94983Zm-4.14226-6.07207h-6.07207l-.53443-.03574a1.81355,1.81355,0,0,0-1.358,1.78686c0,1.71376,1.85671,2.10687,5.4288,2.10687,3.46326,0,5.28423-.39311,5.28423-2.07113C363.93641,284.41382,362.79445,283.87776,361.1879,283.87776Zm-2.46424-8.96353a3.5793,3.5793,0,0,0,3.82062-3.57047,3.67137,3.67137,0,0,0-3.82062-3.715,3.64876,3.64876,0,1,0,0,7.28551Zm30.8233,7.49993a14.18537,14.18537,0,0,1-3.07177.39311c-3.46326,0-5.6416-1.85671-5.6416-5.82191V268.3792h-2.7144v-3.57046h2.7144v-5.50028h4.178v5.50028h4.07079v3.57046h-4.07079v7.85731c0,1.89244.74886,2.85572,2.21408,2.85572a5.62289,5.62289,0,0,0,1.78523-.35575Zm20.53588-8.82058c0,5.39144-3.71342,9.24943-9.14222,9.24943-5.46291,0-9.178-3.858-9.178-9.24943,0-5.46454,3.715-9.28517,9.178-9.28517C406.36942,264.30841,410.08284,268.16478,410.08284,273.59358Zm-4.28522-.03574c0-3.25045-1.96392-5.46453-4.857-5.46453-2.96294,0-4.92686,2.21408-4.92686,5.46453,0,3.24884,1.96392,5.49865,4.92686,5.49865C403.8337,279.05649,405.79762,276.80668,405.79762,273.55784Zm34.43114,8.85632h-4.10653V271.84408c0-2.46424-1.35639-3.89372-3.499-3.89372-2.24982,0-3.78652,1.53669-3.78652,4.28521v10.17859h-4.14226V271.84408c0-2.46424-1.32065-3.89372-3.46325-3.89372-2.24982,0-3.82226,1.53669-3.82226,4.28521v10.17859h-4.21373V264.80874h3.92784l.14295,1.678a5.74484,5.74484,0,0,1,5-2.24982,5.95733,5.95733,0,0,1,5.75043,3.2862c.85607-2.037,2.9272-3.2862,5.67734-3.2862,3.96358,0,6.535,2.57145,6.535,6.96387Zm21.2896-8.82058c0,5.39144-3.71342,9.24943-9.14222,9.24943-5.46291,0-9.178-3.858-9.178-9.24943,0-5.46454,3.715-9.28517,9.178-9.28517C457.80494,264.30841,461.51836,268.16478,461.51836,273.59358Zm-4.28521-.03574c0-3.25045-1.96392-5.46453-4.857-5.46453-2.96293,0-4.92685,2.21408-4.92685,5.46453,0,3.24884,1.96392,5.49865,4.92685,5.49865C455.26923,279.05649,457.23315,276.80668,457.23315,273.55784Zm18.28931-8.7491v3.8921a7.58348,7.58348,0,0,0-1.96392-.25016c-3.0003,0-4.71406,1.96392-4.71406,5.25011v8.71337h-4.28521V264.80874h3.92784l.25016,2.07113c.71474-1.5367,2.57145-2.3213,4.714-2.3213A7.64571,7.64571,0,0,1,475.52246,264.80874Zm13.53626,0v3.8921a7.58343,7.58343,0,0,0-1.96392-.25016c-3.0003,0-4.71406,1.96392-4.71406,5.25011v8.71337h-4.28521V264.80874h3.92784l.25016,2.07113c.71474-1.5367,2.57145-2.3213,4.71406-2.3213A7.64568,7.64568,0,0,1,489.05872,264.80874Zm19.64407,8.78484c0,5.39144-3.71342,9.24943-9.14222,9.24943-5.46291,0-9.178-3.858-9.178-9.24943,0-5.46454,3.715-9.28517,9.178-9.28517C504.98937,264.30841,508.70279,268.16478,508.70279,273.59358Zm-4.28521-.03574c0-3.25045-1.96392-5.46453-4.857-5.46453-2.96293,0-4.92685,2.21408-4.92685,5.46453,0,3.24884,1.96392,5.49865,4.92685,5.49865C502.45366,279.05649,504.41758,276.80668,504.41758,273.55784Zm32.71737-8.7491-6.10781,17.60542h-3.96357l-3.74915-11.35629-3.858,11.35629H515.3499l-5.89176-17.60542h4.57111l3.42752,11.49924,3.715-11.49924h4.32095l3.57047,11.64219,3.60782-11.64219ZM93.72767,230.29209V99.90435H114.707V230.29209Zm165.64182-29.8925-6.34654-18.567H228.19288L198.4408,99.90435H177.098L129.92874,230.29209h21.30438l10.76122-29.8925h51.31959l10.63321,29.8925h21.84174l-10.887-29.8925ZM168.9742,181.86545l18.88461-52.86624,18.64556,52.83336Zm224.40741,18.53414-6.34654-18.567H362.205L332.45291,99.90435H311.1101L263.94085,230.29209h21.30439l10.76121-29.8925H347.326l10.63321,29.8925H379.801l-10.887-29.8925Zm-90.3953-18.53414,18.88461-52.86624,18.64556,52.83336ZM272.07785,387.6513l-3.79492,1.03906c-.46484-2.39844-2.36328-3.72265-5.04687-3.72265-2.90039,0-4.72657,1.53906-4.72657,3.83007,0,1.86133,1.21875,3.00586,3.36524,3.543l4.29687,1.10938c4.40235,1.11133,6.47852,3.61718,6.47852,7.16015,0,4.50977-3.543,7.66016-9.16406,7.66016a10.7528,10.7528,0,0,1-6.33594-1.75391,7.06014,7.06014,0,0,1-3.043-4.832l3.79492-1.002c.32227,2.43359,2.50586,3.86523,5.69141,3.86523,3.15039,0,5.084-1.43164,5.084-3.75781,0-1.82617-1.10937-3.00781-3.36523-3.61523l-4.29688-1.03907c-4.40234-1.03711-6.47851-3.65039-6.47851-7.19531,0-4.50976,3.50781-7.625,8.76953-7.625C268.06809,381.31536,271.36106,383.82122,272.07785,387.6513Zm20.58594,12.85156H278.95285a4.7029,4.7029,0,0,0,5.084,4.47461,4.9947,4.9947,0,0,0,4.76172-2.89844l3.18554,1.28711a8.31053,8.31053,0,0,1-7.98242,4.9043c-5.11914,0-8.66406-3.6875-8.66406-9.23438,0-5.47851,3.47265-9.30859,8.73437-9.30859,5.19141,0,8.5918,3.6875,8.5918,9.27149Zm-3.86523-2.7207c-.17969-3.18555-1.97071-4.86719-4.79688-4.86719-2.82812,0-4.68945,1.75391-5.01172,4.86719Zm11.27929,7.55273v10.49024h-3.65234V390.22942h3.36523l.17969,2.47071c1.03711-1.82617,3.293-2.97266,6.15625-2.97266,5.1543,0,8.55664,3.58008,8.55664,9.34375,0,5.69141-3.58008,9.19922-8.44922,9.19922A7.11744,7.11744,0,0,1,300.07785,405.33489Zm5.51172-12.16992c-3.25781,0-5.334,2.32617-5.334,5.79883,0,3.543,2.14843,5.834,5.334,5.834,3.1875,0,5.29883-2.291,5.29883-5.834C310.8884,395.41888,308.77707,393.165,305.58957,393.165Zm15.002,9.84375a2.66753,2.66753,0,1,1,0,5.334,2.667,2.667,0,1,1,0-5.334Zm32.793,1.39649v3.40039h-14.498v-3.40039h5.4414V385.79l-4.68945,2.543v-3.832l4.68945-2.7207h3.86524v22.625Zm9.74024-.21485h11.27734v3.58008l-16.64648.03516v-3.90235l9.916-8.80469c2.32617-2.041,3.18555-3.61718,3.18555-5.4414a4.49114,4.49114,0,0,0-4.76172-4.76172,4.74482,4.74482,0,0,0-4.93945,5.04687h-3.90235c0-5.26171,3.65235-8.627,8.87891-8.627,5.584,0,8.69727,3.79492,8.69727,8.3418,0,3.32812-1.60938,5.54687-4.50977,8.16015Zm44.10547-7.875v3.43555H378.84348v-3.43555Zm10.27929,7.875h11.27735v3.58008l-16.64649.03516v-3.90235l9.916-8.80469c2.32617-2.041,3.18555-3.61718,3.18555-5.4414a4.49115,4.49115,0,0,0-4.76172-4.76172,4.74483,4.74483,0,0,0-4.93946,5.04687H411.6384c0-5.26171,3.65234-8.627,8.87891-8.627,5.584,0,8.69726,3.79492,8.69726,8.3418,0,3.32812-1.60937,5.54687-4.50976,8.16015Zm21.19532,0h11.27734v3.58008l-16.64648.03516v-3.90235l9.916-8.80469c2.32617-2.041,3.18555-3.61718,3.18555-5.4414a4.49115,4.49115,0,0,0-4.76172-4.76172,4.74482,4.74482,0,0,0-4.93945,5.04687h-3.90235c0-5.26171,3.65235-8.627,8.87891-8.627,5.584,0,8.69726,3.79492,8.69726,8.3418,0,3.32812-1.60937,5.54687-4.50976,8.16015Zm16.39843,7.23047v-1.32422a2.196,2.196,0,0,0,2.14844-2.11133,2.459,2.459,0,0,1-.85937.17774,2.09,2.09,0,0,1-2.14844-2.291,2.34924,2.34924,0,0,1,2.4707-2.46875c1.53906,0,2.7207,1.07227,2.7207,3.25781C459.43527,409.37981,457.28684,411.4931,455.10324,411.42083Zm24.166-7.23047H490.5466v3.58008l-16.64648.03516v-3.90235l9.916-8.80469c2.32618-2.041,3.18555-3.61718,3.18555-5.4414a4.49114,4.49114,0,0,0-4.76172-4.76172,4.74482,4.74482,0,0,0-4.93945,5.04687h-3.90234c0-5.26171,3.65234-8.627,8.8789-8.627,5.584,0,8.69727,3.79492,8.69727,8.3418,0,3.32812-1.60938,5.54687-4.50977,8.16015Zm38.19726-9.30664c0,8.01758-4.4746,13.38672-11.3125,13.38672-7.08789,0-11.31054-5.51172-11.31054-13.49414,0-7.94727,4.50976-13.46094,11.27539-13.46094C513.1716,381.31536,517.46652,386.89935,517.46652,394.88372Zm-3.9375-.07226a11.68368,11.68368,0,0,0-1.96875-7.19532,6.337,6.337,0,0,0-5.36914-2.68554,6.44346,6.44346,0,0,0-5.47851,2.68554,11.7954,11.7954,0,0,0-1.96875,7.23047c0,6.05078,2.82812,9.84375,7.44726,9.84375C510.77317,404.69036,513.529,400.82513,513.529,394.81146Zm24.20313,9.59375v3.40039H523.2341v-3.40039h5.44141V385.79l-4.68945,2.543v-3.832l4.68945-2.7207h3.86523v22.625Zm12.42578,3.86523a11.10787,11.10787,0,0,1-7.83984-2.89844l2.36328-2.793a8.25618,8.25618,0,0,0,5.6543,2.00391c4.79687,0,7.48242-3.68555,7.55468-8.627a7.72266,7.72266,0,0,1-7.01758,3.75976c-5.26171-.07226-9.19921-3.54492-9.19921-8.94922a9.2318,9.2318,0,0,1,9.48632-9.45117c7.23047,0,10.59571,5.8711,10.59571,13.13867C561.79074,402.079,557.92551,408.37786,550.15793,408.27044Zm1.14453-23.41016a5.76524,5.76524,0,1,0,5.65625,5.79883A5.51546,5.51546,0,0,0,551.30246,384.86028ZM259.76369,428.50286v7.80274H269.752v3.58007h-9.98828v10.88282H255.791V424.7431h15.85742v3.75976Zm24.81054,4.68945v3.50782a7.51143,7.51143,0,0,0-1.93359-.25c-3.00586,0-4.72461,2.0039-4.72461,5.26172v9.05664h-3.86524V433.19231h3.543l.21485,2.14844c.71679-1.57617,2.61328-2.39844,4.76172-2.39844A8.47282,8.47282,0,0,1,284.57423,433.19231Zm14.03516,17.57618a14.939,14.939,0,0,1-.28711-2.1836,6.48525,6.48525,0,0,1-5.61914,2.64844c-3.83008,0-6.37305-2.18359-6.37305-5.65625,0-3.43555,2.50586-5.51172,6.4082-5.51172H298.252v-.67969c0-2.4707-1.53907-3.58007-3.9375-3.58007a4.77257,4.77257,0,0,0-4.61914,2.64843l-2.791-1.61132c1.43164-2.82813,4.15234-4.15235,7.58789-4.15235a8.38,8.38,0,0,1,5.37109,1.6836c1.39454,1.10937,2.11133,2.93554,2.11133,5.4414v7.19531a13.417,13.417,0,0,0,.32227,3.75782Zm-.35742-8.01758h-4.6543c-2.18359,0-3.40039,1.03711-3.40039,2.791,0,1.82618,1.28906,2.75586,3.43555,2.75586,2.61328,0,4.61914-1.71679,4.61914-5.11914Zm24.27148,8.01758h-3.79492v-10.0586c0-1.71875-.39258-2.90039-1.2168-3.58008a4.27956,4.27956,0,0,0-2.82812-1.002,4.40849,4.40849,0,0,0-4.54688,4.79688v9.84375h-3.793V433.19231h3.543l.14258,2.041a6.30733,6.30733,0,0,1,5.44141-2.543c4.332,0,7.05273,2.543,7.05273,7.26758Zm4.58594,0V424.27825h3.793v16.57422l7.375-7.66016h4.76172l-7.51758,7.875,7.19531,9.70118h-4.582l-5.15625-7.05274-2.07617,2.1836v4.86914Zm23.27148-20.082v2.50585h4.15235v3.1504h-4.15235v14.42578h-3.83008V436.34271h-2.541v-3.1504h2.541v-2.50585c0-4.332,2.32618-6.40821,6.04883-6.40821a9.595,9.595,0,0,1,2.00586.21485v3.36523a6.59944,6.59944,0,0,0-1.46875-.14258C351.13283,427.71575,350.38087,428.79,350.38087,430.68646Zm20.332,20.082a13.87825,13.87825,0,0,1-.32031-2.11133c-1.0039,1.68164-2.97265,2.57617-5.37109,2.57617a7.70512,7.70512,0,0,1-5.04688-1.7168c-1.39648-1.18164-2.11133-3.08007-2.11133-5.69336v-10.666h3.83008v10.02148c0,1.71875.39258,2.93555,1.2168,3.61719a4.42708,4.42708,0,0,0,2.90039,1.03711c2.43359,0,4.50977-1.64648,4.50977-4.79688v-9.84375h3.83007v14.35352a18.13906,18.13906,0,0,0,.32227,3.22266Zm18.69141-17.57618v3.50782a7.51143,7.51143,0,0,0-1.93359-.25c-3.00586,0-4.72461,2.0039-4.72461,5.26172v9.05664h-3.86524V433.19231h3.543l.21485,2.14844c.71679-1.57617,2.61328-2.39844,4.76171-2.39844A8.47284,8.47284,0,0,1,389.40431,433.19231Zm25.8788-8.4121h3.83008l-10.20313,25.98828h-3.75781Zm30.89152,0v25.98828h-3.9375V433.69231l-6.8379,17.07618h-3.79492l-6.83593-17.00391v17.00391H420.9383V424.7431h3.83008l8.73437,21.37109,8.73438-21.37109Zm16.58007,25.98828a14.94039,14.94039,0,0,1-.28711-2.1836,6.48524,6.48524,0,0,1-5.61914,2.64844c-3.83007,0-6.373-2.18359-6.373-5.65625,0-3.43555,2.50586-5.51172,6.4082-5.51172h5.51367v-.67969c0-2.4707-1.53906-3.58007-3.9375-3.58007a4.77259,4.77259,0,0,0-4.61914,2.64843l-2.791-1.61132c1.43164-2.82813,4.15234-4.15235,7.58789-4.15235a8.38,8.38,0,0,1,5.37109,1.6836c1.39453,1.10937,2.11133,2.93554,2.11133,5.4414v7.19531a13.41757,13.41757,0,0,0,.32226,3.75782Zm-.35742-8.01758H457.743c-2.18359,0-3.40039,1.03711-3.40039,2.791,0,1.82618,1.28907,2.75586,3.43555,2.75586,2.61328,0,4.61914-1.71679,4.61914-5.11914Zm10.20313-18.25781a2.5235,2.5235,0,1,1-2.541,2.541A2.498,2.498,0,0,1,472.60041,424.4931Zm1.89648,8.69921v17.57618h-3.793V433.19231Zm20.98047,17.57618h-3.79492v-10.0586c0-1.71875-.39258-2.90039-1.2168-3.58008a4.27958,4.27958,0,0,0-2.82812-1.002,4.40849,4.40849,0,0,0-4.54688,4.79688v9.84375h-3.793V433.19231h3.543l.14258,2.041a6.30733,6.30733,0,0,1,5.44141-2.543c4.332,0,7.05273,2.543,7.05273,7.26758Zm-94.56844-3.3108c-1.10156,0-2.41211-.52929-2.41211-3.05468v-8.05664h4.07032v-3.17188h-4.07032v-5.50195h-3.78125v5.50195h-2.71289v3.17188h2.71289v8.80468c0,3.67774,1.88282,5.623,5.44336,5.623a13.75706,13.75706,0,0,0,2.84766-.34766l-.47656-3.25781A5.582,5.582,0,0,1,400.90892,447.45769Z" fill="#fff"/></svg>