<svg xmlns="http://www.w3.org/2000/svg" viewBox="0 0 643.97418 549.97795"><title>IAA_Logo_claim_1_date_DE_blue_RGB</title><path d="M234.17238,257.88977l6.05635,13.03741-6.05635,13.03741H229.893l6.05611-13.03741L229.893,257.88977Zm4.29819,0,6.05612,13.03741-6.05612,13.03741H242.75l6.05634-13.03741L242.75,257.88977Zm32.15695,26.0784H261.664V257.89791h8.96353a13.03532,13.03532,0,1,1,0,26.07026Zm-.07147-21.92637h-4.4639v17.81985h4.4639c5.17864,0,8.49894-3.57209,8.49894-8.89206C279.055,265.71948,275.66321,262.0418,270.55605,262.0418Zm27.36,4.32095v3.8921a7.58343,7.58343,0,0,0-1.96392-.25016c-3.00029,0-4.71405,1.96392-4.71405,5.25011v8.71337h-4.28521V266.36275h3.92784l.25016,2.07113c.71474-1.5367,2.57145-2.32129,4.71405-2.32129A7.64564,7.64564,0,0,1,297.91609,266.36275Zm5.10879-8.78485a2.67808,2.67808,0,0,1,0,5.3557,2.69807,2.69807,0,0,1-2.67866-2.67866A2.652,2.652,0,0,1,303.02488,257.5779Zm2.10687,8.78485v17.60542H300.918V266.36275Zm20.93061,0-7.357,17.60542h-4.178L307.492,266.36275h4.57111l4.64258,12.60547,4.96422-12.60547Zm4.61009-8.78485a2.67808,2.67808,0,0,1,0,5.3557,2.69806,2.69806,0,0,1-2.67866-2.67866A2.652,2.652,0,0,1,330.67245,257.5779Zm2.10687,8.78485v17.60542h-4.21373V266.36275Zm20.71456,17.60542h-4.21373V274.004q0-2.517-1.17933-3.42752a4.27357,4.27357,0,0,0-6.92814,3.57047v9.82122H336.959V266.36275h3.96357l.14295,1.89244a6.36565,6.36565,0,0,1,5.28585-2.4285c4.53537,0,7.14256,2.60719,7.14256,7.28551Zm18.07489,7.53567a15.60087,15.60087,0,0,1-6.78519,1.35639c-5.679,0-8.96353-1.42786-8.96353-4.57111a3.87449,3.87449,0,0,1,2.4285-3.67768,3.68513,3.68513,0,0,1-1.67965-3.25045,3.91677,3.91677,0,0,1,2.46424-3.67768,6.46964,6.46964,0,0,1-1.99965-4.82127c0-4.14226,3.25045-7.03535,7.96451-7.03535a9.88276,9.88276,0,0,1,4.14226.85769,4.679,4.679,0,0,1,4.39242-2.5,3.68794,3.68794,0,0,1,.679.03573v3.46326a3.09572,3.09572,0,0,0-.64327-.03574,3.13566,3.13566,0,0,0-2.21408.75048,6.55256,6.55256,0,0,1,1.53508,4.42816c0,4.178-3.14163,6.99961-7.85568,6.99961a9.55432,9.55432,0,0,1-3.32193-.57179c-1.03476.03573-1.678.53606-1.678,1.42786,0,.679.5718,1.28654,1.85671,1.28654h6.21339c3.89373,0,6.17929,1.96392,6.17929,5.25011A4.39342,4.39342,0,0,1,371.56877,291.50384Zm-4.14227-6.07207h-6.07207L360.82,285.396a1.81352,1.81352,0,0,0-1.358,1.78685c0,1.71376,1.85671,2.10687,5.4288,2.10687,3.46325,0,5.28423-.39311,5.28423-2.07113C370.175,285.96783,369.03305,285.43177,367.4265,285.43177Zm-2.46424-8.96353a3.5793,3.5793,0,0,0,3.82063-3.57046,3.67136,3.67136,0,0,0-3.82063-3.715,3.64875,3.64875,0,1,0,0,7.2855Zm30.82331,7.49993a14.18552,14.18552,0,0,1-3.07177.39311c-3.46326,0-5.6416-1.8567-5.6416-5.82191v-8.60615h-2.7144v-3.57047h2.7144v-5.50028h4.178v5.50028H395.321v3.57047H391.2502v7.8573c0,1.89244.74885,2.85572,2.21408,2.85572a5.62312,5.62312,0,0,0,1.78523-.35574Zm20.53587-8.82058c0,5.39144-3.71342,9.24943-9.14222,9.24943-5.46291,0-9.178-3.858-9.178-9.24943,0-5.46453,3.715-9.28516,9.178-9.28516C412.608,265.86243,416.32144,269.71879,416.32144,275.14759Zm-4.28521-.03573c0-3.25046-1.96392-5.46454-4.857-5.46454-2.96293,0-4.92685,2.21408-4.92685,5.46454,0,3.24883,1.96392,5.49865,4.92685,5.49865C410.07231,280.61051,412.03623,278.36069,412.03623,275.11186Zm34.43113,8.85631h-4.10652V273.3981c0-2.46424-1.35639-3.89373-3.499-3.89373-2.24981,0-3.78651,1.5367-3.78651,4.28521v10.17859h-4.14226V273.3981c0-2.46424-1.32065-3.89373-3.46326-3.89373-2.24982,0-3.82225,1.5367-3.82225,4.28521v10.17859h-4.21374V266.36275h3.92784l.143,1.678a5.74486,5.74486,0,0,1,5-2.24982,5.95734,5.95734,0,0,1,5.75043,3.2862c.85607-2.037,2.9272-3.2862,5.67734-3.2862,3.96357,0,6.535,2.57145,6.535,6.96388Zm21.28961-8.82058c0,5.39144-3.71342,9.24943-9.14222,9.24943-5.46291,0-9.178-3.858-9.178-9.24943,0-5.46453,3.715-9.28516,9.178-9.28516C464.04355,265.86243,467.757,269.71879,467.757,275.14759Zm-4.28521-.03573c0-3.25046-1.96392-5.46454-4.857-5.46454-2.96294,0-4.92686,2.21408-4.92686,5.46454,0,3.24883,1.96392,5.49865,4.92686,5.49865C461.50784,280.61051,463.47176,278.36069,463.47176,275.11186Zm18.2893-8.74911v3.8921a7.58343,7.58343,0,0,0-1.96392-.25016c-3.0003,0-4.714,1.96392-4.714,5.25011v8.71337h-4.28522V266.36275h3.92784l.25016,2.07113c.71475-1.5367,2.57146-2.32129,4.71406-2.32129A7.64564,7.64564,0,0,1,481.76106,266.36275Zm13.53626,0v3.8921a7.58341,7.58341,0,0,0-1.96391-.25016c-3.0003,0-4.71406,1.96392-4.71406,5.25011v8.71337h-4.28521V266.36275H488.262l.25016,2.07113c.71474-1.5367,2.57145-2.32129,4.714-2.32129A7.64564,7.64564,0,0,1,495.29732,266.36275Zm19.64407,8.78484c0,5.39144-3.71341,9.24943-9.14221,9.24943-5.46292,0-9.178-3.858-9.178-9.24943,0-5.46453,3.715-9.28516,9.178-9.28516C511.228,265.86243,514.94139,269.71879,514.94139,275.14759Zm-4.28521-.03573c0-3.25046-1.96392-5.46454-4.857-5.46454-2.96294,0-4.92686,2.21408-4.92686,5.46454,0,3.24883,1.96392,5.49865,4.92686,5.49865C508.69226,280.61051,510.65618,278.36069,510.65618,275.11186Zm32.71738-8.74911-6.10781,17.60542h-3.96358L529.553,272.61188l-3.858,11.35629h-4.10652l-5.89176-17.60542h4.57111l3.42751,11.49924,3.71505-11.49924h4.32094l3.57047,11.64219,3.60783-11.64219ZM99.96628,231.84611V101.45836h20.97936V231.84611ZM265.6081,201.9536l-6.34654-18.567H234.43149L204.6794,101.45836H183.33659L136.16734,231.84611h21.30439l10.76121-29.89251h51.31959l10.63322,29.89251h21.84174l-10.887-29.89251Zm-90.3953-18.53414,18.88462-52.86624L212.743,183.38658ZM399.62021,201.9536l-6.34654-18.567H368.4436l-29.75208-81.92822H317.3487L270.17946,231.84611h21.30438l10.76122-29.89251h51.31959l10.63321,29.89251H386.0396l-10.887-29.89251Zm-90.39529-18.53414,18.88461-52.86624,18.64556,52.83336ZM277.02768,405.95922v3.40039h-14.498v-3.40039H267.971V387.344l-4.68945,2.543v-3.832l4.68945-2.7207h3.86524v22.625Zm9.74024-.21485h11.27734v3.58008l-16.64648.03516v-3.90234l9.916-8.80469c2.32617-2.041,3.18555-3.61719,3.18555-5.44141a4.49115,4.49115,0,0,0-4.76172-4.76172,4.74482,4.74482,0,0,0-4.93945,5.04688h-3.90235c0-5.26172,3.65235-8.627,8.87891-8.627,5.584,0,8.69726,3.79493,8.69726,8.3418,0,3.32813-1.60937,5.54688-4.50976,8.16016Zm18.36718-1.18164a2.66753,2.66753,0,1,1,0,5.334,2.667,2.667,0,1,1,0-5.334Zm35.834-6.69336v3.43555H312.58237v-3.43555Zm10.27929,7.875h11.27735v3.58008l-16.64649.03516v-3.90234l9.916-8.80469c2.32617-2.041,3.18555-3.61719,3.18555-5.44141a4.49115,4.49115,0,0,0-4.76172-4.76172,4.74483,4.74483,0,0,0-4.93946,5.04688h-3.90234c0-5.26172,3.65234-8.627,8.87891-8.627,5.584,0,8.69726,3.79493,8.69726,8.3418,0,3.32813-1.60937,5.54688-4.50976,8.16016Zm21.19532,0H383.721v3.58008l-16.64648.03516v-3.90234l9.916-8.80469c2.32617-2.041,3.18555-3.61719,3.18555-5.44141a4.49114,4.49114,0,0,0-4.76172-4.76172,4.74482,4.74482,0,0,0-4.93945,5.04688H366.5726c0-5.26172,3.65235-8.627,8.87891-8.627,5.584,0,8.69727,3.79493,8.69727,8.3418,0,3.32813-1.60938,5.54688-4.50977,8.16016Zm18.36718-1.18164a2.66753,2.66753,0,1,1,0,5.334,2.667,2.667,0,1,1,0-5.334Zm34.082-15.35742-3.79493,1.03906c-.46484-2.39843-2.36328-3.72265-5.04687-3.72265-2.90039,0-4.72461,1.53906-4.72461,3.83008,0,1.86132,1.2168,3.00586,3.36328,3.543l4.29688,1.10937c4.40234,1.11133,6.47851,3.61719,6.47851,7.16016,0,4.50976-3.543,7.66015-9.16406,7.66015a10.7528,10.7528,0,0,1-6.33594-1.7539,7.06016,7.06016,0,0,1-3.043-4.832l3.79492-1.002c.32227,2.4336,2.50586,3.86524,5.69141,3.86524,3.15039,0,5.084-1.43164,5.084-3.75782,0-1.82617-1.10938-3.00781-3.36524-3.61523l-4.29687-1.03906c-4.40235-1.03711-6.47852-3.65039-6.47852-7.19532,0-4.50976,3.50781-7.625,8.76953-7.625C420.88315,382.86937,424.17612,385.37523,424.89292,389.20531Zm20.58593,12.85156H431.76792a4.70289,4.70289,0,0,0,5.084,4.47461,4.99469,4.99469,0,0,0,4.76172-2.89843l3.18555,1.28711a8.31055,8.31055,0,0,1-7.98243,4.90429c-5.11914,0-8.66406-3.6875-8.66406-9.23437,0-5.47852,3.47266-9.3086,8.73438-9.3086,5.1914,0,8.59179,3.6875,8.59179,9.27149Zm-3.86523-2.7207c-.17969-3.18555-1.9707-4.86719-4.79688-4.86719-2.82812,0-4.68945,1.75391-5.01171,4.86719Zm11.2793,7.55274v10.49023h-3.65235v-25.5957h3.36524l.17968,2.4707c1.03711-1.82617,3.293-2.97266,6.15625-2.97266,5.1543,0,8.55664,3.58008,8.55664,9.34375,0,5.69141-3.58007,9.19922-8.44921,9.19922A7.11742,7.11742,0,0,1,452.89292,406.88891Zm5.51171-12.16993c-3.25781,0-5.334,2.32618-5.334,5.79883,0,3.543,2.14844,5.834,5.334,5.834,3.1875,0,5.29883-2.291,5.29883-5.834C463.70346,396.97289,461.59213,394.719,458.40463,394.719Zm26.83732,9.84375a2.66753,2.66753,0,1,1,0,5.334,2.667,2.667,0,1,1,0-5.334Zm23.28573,1.18164H519.805v3.58008l-16.64649.03516v-3.90234l9.916-8.80469c2.32617-2.041,3.18554-3.61719,3.18554-5.44141a4.49114,4.49114,0,0,0-4.76172-4.76172,4.74483,4.74483,0,0,0-4.93945,5.04688h-3.90234c0-5.26172,3.65234-8.627,8.8789-8.627,5.584,0,8.69727,3.79493,8.69727,8.3418,0,3.32813-1.60938,5.54688-4.50977,8.16016Zm38.19922-9.30664c0,8.01758-4.47461,13.38672-11.3125,13.38672-7.08789,0-11.31055-5.51172-11.31055-13.49414,0-7.94726,4.50977-13.46094,11.27539-13.46094C542.432,382.86937,546.7269,388.45336,546.7269,396.43773Zm-3.9375-.07226a11.68363,11.68363,0,0,0-1.96875-7.19531,6.337,6.337,0,0,0-5.36914-2.68555,6.44346,6.44346,0,0,0-5.47852,2.68555,11.79544,11.79544,0,0,0-1.96875,7.23046c0,6.05079,2.82813,9.84375,7.44727,9.84375C540.03354,406.24437,542.7894,402.37914,542.7894,396.36547Zm24.20313,9.59375v3.40039H552.49448v-3.40039h5.4414V387.344l-4.68945,2.543v-3.832l4.68945-2.7207h3.86524v22.625Zm12.42382,3.86523a11.10792,11.10792,0,0,1-7.83984-2.89843l2.36328-2.793a8.25619,8.25619,0,0,0,5.6543,2.0039c4.79687,0,7.48242-3.68554,7.55469-8.627a7.72266,7.72266,0,0,1-7.01758,3.75977c-5.26172-.07227-9.19922-3.54493-9.19922-8.94922a9.23181,9.23181,0,0,1,9.48633-9.45118c7.23047,0,10.5957,5.8711,10.5957,13.13868C591.04917,403.63305,587.18393,409.93187,579.41635,409.82445Zm1.14453-23.41015a5.76524,5.76524,0,1,0,5.65625,5.79882A5.51545,5.51545,0,0,0,580.56088,386.4143ZM266.00229,430.05687v7.80274h9.98828v3.58008h-9.98828V452.3225h-3.97266V426.29711h15.85743v3.75976Zm24.81055,4.68946v3.50781a7.51145,7.51145,0,0,0-1.9336-.25c-3.00586,0-4.72461,2.00391-4.72461,5.26172v9.05664H280.2894V434.74633h3.543l.21484,2.14844c.7168-1.57618,2.61328-2.39844,4.76172-2.39844A8.47244,8.47244,0,0,1,290.81284,434.74633ZM304.848,452.3225a14.94021,14.94021,0,0,1-.28711-2.18359,6.48526,6.48526,0,0,1-5.61914,2.64843c-3.83007,0-6.373-2.18359-6.373-5.65625,0-3.43554,2.50586-5.51172,6.4082-5.51172h5.51367v-.67968c0-2.47071-1.53906-3.58008-3.9375-3.58008a4.77258,4.77258,0,0,0-4.61914,2.64844l-2.791-1.61133c1.43164-2.82813,4.15234-4.15235,7.58789-4.15235a8.38,8.38,0,0,1,5.37109,1.6836c1.39453,1.10937,2.11133,2.93555,2.11133,5.4414v7.19532a13.41748,13.41748,0,0,0,.32226,3.75781Zm-.35742-8.01758h-4.65429c-2.1836,0-3.4004,1.03711-3.4004,2.791,0,1.82617,1.28907,2.75586,3.43555,2.75586,2.61328,0,4.61914-1.7168,4.61914-5.11914Zm24.27149,8.01758h-3.79493V442.26391c0-1.71875-.39257-2.90039-1.21679-3.58008a4.27954,4.27954,0,0,0-2.82813-1.002,4.40849,4.40849,0,0,0-4.54687,4.79688v9.84375h-3.793V434.74633h3.543l.14258,2.041a6.3073,6.3073,0,0,1,5.4414-2.543c4.332,0,7.05274,2.543,7.05274,7.26758Zm4.58593,0V425.83227h3.793v16.57421l7.375-7.66015h4.76172l-7.51758,7.875,7.19532,9.70117h-4.582l-5.15625-7.05273-2.07617,2.18359v4.86914Zm23.27149-20.082v2.50586h4.15234v3.15039h-4.15234V452.3225H352.7894V437.89672h-2.541v-3.15039h2.541v-2.50586c0-4.332,2.32617-6.4082,6.04883-6.4082a9.595,9.595,0,0,1,2.00586.21484v3.36523a6.59955,6.59955,0,0,0-1.46875-.14257C357.37143,429.26977,356.61948,430.344,356.61948,432.24047Zm20.332,20.082a13.87679,13.87679,0,0,1-.32031-2.11133c-1.00391,1.68164-2.97266,2.57617-5.3711,2.57617a7.70506,7.70506,0,0,1-5.04687-1.71679c-1.39649-1.18164-2.11133-3.08008-2.11133-5.69336v-10.666H367.932v10.02149c0,1.71875.39258,2.93554,1.2168,3.61718a4.42707,4.42707,0,0,0,2.90039,1.03711c2.43359,0,4.50976-1.64648,4.50976-4.79687v-9.84375H380.389v14.35351a18.13906,18.13906,0,0,0,.32227,3.22266Zm18.69141-17.57617v3.50781a7.51145,7.51145,0,0,0-1.9336-.25c-3.00586,0-4.72461,2.00391-4.72461,5.26172v9.05664h-3.86523V434.74633h3.543l.21484,2.14844c.7168-1.57618,2.61328-2.39844,4.76172-2.39844A8.47244,8.47244,0,0,1,395.64292,434.74633Zm25.8788-8.41211h3.83008L415.14867,452.3225h-3.75781Zm30.89151,0V452.3225h-3.9375V435.24633l-6.83789,17.07617h-3.79492L431.007,435.31859V452.3225H427.1769V426.29711H431.007l8.73438,21.37109,8.73437-21.37109Zm16.58008,25.98828a14.94021,14.94021,0,0,1-.28711-2.18359,6.48527,6.48527,0,0,1-5.61914,2.64843c-3.83008,0-6.37305-2.18359-6.37305-5.65625,0-3.43554,2.50586-5.51172,6.40821-5.51172h5.51367v-.67968c0-2.47071-1.53906-3.58008-3.9375-3.58008a4.77256,4.77256,0,0,0-4.61914,2.64844l-2.791-1.61133c1.43164-2.82813,4.15235-4.15235,7.58789-4.15235a8.38007,8.38007,0,0,1,5.3711,1.6836c1.39453,1.10937,2.11132,2.93555,2.11132,5.4414v7.19532a13.41735,13.41735,0,0,0,.32227,3.75781Zm-.35742-8.01758h-4.6543c-2.18359,0-3.40039,1.03711-3.40039,2.791,0,1.82617,1.28906,2.75586,3.43555,2.75586,2.61328,0,4.61914-1.7168,4.61914-5.11914ZM478.839,426.04711a2.5235,2.5235,0,1,1-2.541,2.541A2.498,2.498,0,0,1,478.839,426.04711Zm1.89649,8.69922V452.3225h-3.793V434.74633ZM501.716,452.3225H497.921V442.26391c0-1.71875-.39257-2.90039-1.21679-3.58008a4.27954,4.27954,0,0,0-2.82813-1.002,4.40849,4.40849,0,0,0-4.54687,4.79688v9.84375h-3.793V434.74633h3.543l.14258,2.041a6.3073,6.3073,0,0,1,5.4414-2.543c4.332,0,7.05274,2.543,7.05274,7.26758Zm-94.56844-3.31079c-1.10156,0-2.41211-.5293-2.41211-3.05469v-8.05664h4.07031V434.7285h-4.07031v-5.502h-3.78125v5.502h-2.71289v3.17188h2.71289v8.80469c0,3.67773,1.88281,5.623,5.44336,5.623a13.757,13.757,0,0,0,2.84765-.34765l-.47656-3.25782A5.58155,5.58155,0,0,1,407.14753,449.01171Zm70.97-42.83765c-1.10156,0-2.41211-.52929-2.41211-3.05469v-8.05664h4.07031v-3.17187H475.7054v-5.50195h-3.78125v5.50195h-2.71289v3.17187h2.71289v8.80469c0,3.67774,1.88281,5.62305,5.44336,5.62305a13.75705,13.75705,0,0,0,2.84765-.34766l-.47656-3.25781A5.58184,5.58184,0,0,1,478.11751,406.17406Z" fill="#2ed1f7"/></svg>