<svg xmlns="http://www.w3.org/2000/svg" viewBox="0 0 644.49255 383.52756"><title>IAA_Logo_claim_1_blue_RGB</title><path d="M234.71728,256.93613l6.05634,13.0374-6.05634,13.03741h-4.2794l6.05611-13.03741-6.05611-13.0374Zm4.29819,0,6.05611,13.0374-6.05611,13.03741h4.27939l6.05635-13.03741-6.05635-13.0374Zm32.15694,26.0784h-8.96353V256.94427h8.96353a13.03532,13.03532,0,1,1,0,26.07026Zm-.07147-21.92637H266.637V278.908h4.4639c5.17864,0,8.499-3.57209,8.499-8.89206C279.59989,264.76584,276.20811,261.08816,271.10094,261.08816Zm27.36005,4.32095v3.8921a7.58343,7.58343,0,0,0-1.96392-.25016c-3.0003,0-4.71406,1.96392-4.71406,5.25011v8.71337H287.4978V265.40911h3.92784l.25016,2.07113c.71474-1.5367,2.57145-2.32129,4.71406-2.32129A7.64569,7.64569,0,0,1,298.461,265.40911Zm5.10879-8.78485a2.67808,2.67808,0,0,1,0,5.3557,2.69807,2.69807,0,0,1-2.67866-2.67866A2.652,2.652,0,0,1,303.56978,256.62426Zm2.10687,8.78485v17.60542h-4.21374V265.40911Zm20.9306,0-7.357,17.60542h-4.178l-7.03535-17.60542H312.608l4.64258,12.60547,4.96422-12.60547Zm4.6101-8.78485a2.67808,2.67808,0,0,1,0,5.3557,2.69807,2.69807,0,0,1-2.67866-2.67866A2.652,2.652,0,0,1,331.21735,256.62426Zm2.10687,8.78485v17.60542h-4.21374V265.40911Zm20.71456,17.60542H349.825v-9.96417q0-2.517-1.17933-3.42752a4.27356,4.27356,0,0,0-6.92813,3.57047v9.82122h-4.21374V265.40911h3.96358l.14295,1.89244a6.36564,6.36564,0,0,1,5.28585-2.4285c4.53537,0,7.14256,2.60719,7.14256,7.28551Zm18.07488,7.53567a15.6008,15.6008,0,0,1-6.78519,1.35639c-5.679,0-8.96353-1.42786-8.96353-4.57111a3.8745,3.8745,0,0,1,2.4285-3.67768,3.68513,3.68513,0,0,1-1.67964-3.25046,3.91679,3.91679,0,0,1,2.46424-3.67768,6.46961,6.46961,0,0,1-1.99966-4.82126c0-4.14227,3.25046-7.03535,7.96451-7.03535a9.88281,9.88281,0,0,1,4.14227.85769,4.679,4.679,0,0,1,4.39242-2.5,3.68675,3.68675,0,0,1,.679.03574v3.46326a3.09561,3.09561,0,0,0-.64326-.03574,3.13563,3.13563,0,0,0-2.21408.75048,6.55261,6.55261,0,0,1,1.53507,4.42816c0,4.178-3.14162,6.99961-7.85568,6.99961a9.55455,9.55455,0,0,1-3.32193-.57179c-1.03475.03573-1.678.536-1.678,1.42786,0,.679.57179,1.28654,1.85671,1.28654h6.21339c3.89373,0,6.17928,1.96392,6.17928,5.25011A4.39342,4.39342,0,0,1,372.11366,290.5502Zm-4.14226-6.07207h-6.07207l-.53444-.03574a1.81355,1.81355,0,0,0-1.358,1.78686c0,1.71376,1.85671,2.10687,5.4288,2.10687,3.46326,0,5.28423-.39311,5.28423-2.07113C370.71991,285.01419,369.57794,284.47813,367.9714,284.47813Zm-2.46424-8.96353a3.5793,3.5793,0,0,0,3.82062-3.57047,3.67137,3.67137,0,0,0-3.82062-3.715,3.64876,3.64876,0,1,0,0,7.28551Zm30.8233,7.49993a14.18537,14.18537,0,0,1-3.07177.39311c-3.46326,0-5.6416-1.85671-5.6416-5.82191v-8.60616h-2.7144v-3.57046h2.7144v-5.50028h4.178v5.50028h4.07079v3.57046h-4.07079v7.85731c0,1.89244.74886,2.85572,2.21408,2.85572a5.62289,5.62289,0,0,0,1.78523-.35575Zm20.53588-8.82058c0,5.39144-3.71342,9.24943-9.14222,9.24943-5.46291,0-9.178-3.858-9.178-9.24943,0-5.46454,3.715-9.28516,9.178-9.28516C413.15292,264.90879,416.86634,268.76515,416.86634,274.19395Zm-4.28522-.03574c0-3.25045-1.96392-5.46453-4.857-5.46453-2.96294,0-4.92686,2.21408-4.92686,5.46453,0,3.24884,1.96392,5.49865,4.92686,5.49865C410.6172,279.65686,412.58112,277.40705,412.58112,274.15821Zm34.43114,8.85632h-4.10653V272.44445c0-2.46424-1.35639-3.89372-3.499-3.89372-2.24982,0-3.78652,1.5367-3.78652,4.28521v10.17859H431.478V272.44445c0-2.46424-1.32065-3.89372-3.46325-3.89372-2.24982,0-3.82226,1.5367-3.82226,4.28521v10.17859h-4.21373V265.40911h3.92784l.14295,1.678a5.74484,5.74484,0,0,1,5-2.24982,5.95733,5.95733,0,0,1,5.75043,3.2862c.85607-2.037,2.9272-3.2862,5.67734-3.2862,3.96358,0,6.535,2.57145,6.535,6.96387Zm21.2896-8.82058c0,5.39144-3.71342,9.24943-9.14222,9.24943-5.46291,0-9.178-3.858-9.178-9.24943,0-5.46454,3.715-9.28516,9.178-9.28516C464.58844,264.90879,468.30186,268.76515,468.30186,274.19395Zm-4.28521-.03574c0-3.25045-1.96392-5.46453-4.857-5.46453-2.96293,0-4.92685,2.21408-4.92685,5.46453,0,3.24884,1.96392,5.49865,4.92685,5.49865C462.05273,279.65686,464.01665,277.40705,464.01665,274.15821Zm18.28931-8.7491v3.8921a7.58348,7.58348,0,0,0-1.96392-.25016c-3.0003,0-4.71406,1.96392-4.71406,5.25011v8.71337h-4.28521V265.40911h3.92784l.25016,2.07113c.71474-1.5367,2.57145-2.32129,4.714-2.32129A7.64571,7.64571,0,0,1,482.306,265.40911Zm13.53626,0v3.8921a7.58343,7.58343,0,0,0-1.96392-.25016c-3.0003,0-4.71406,1.96392-4.71406,5.25011v8.71337H484.879V265.40911h3.92784l.25016,2.07113c.71474-1.5367,2.57145-2.32129,4.71406-2.32129A7.64569,7.64569,0,0,1,495.84222,265.40911Zm19.64407,8.78484c0,5.39144-3.71342,9.24943-9.14222,9.24943-5.46291,0-9.178-3.858-9.178-9.24943,0-5.46454,3.715-9.28516,9.178-9.28516C511.77287,264.90879,515.48629,268.76515,515.48629,274.19395Zm-4.28521-.03574c0-3.25045-1.96392-5.46453-4.857-5.46453-2.96293,0-4.92685,2.21408-4.92685,5.46453,0,3.24884,1.96392,5.49865,4.92685,5.49865C509.23716,279.65686,511.20108,277.40705,511.20108,274.15821Zm32.71737-8.7491-6.10781,17.60542h-3.96357l-3.74916-11.35629-3.858,11.35629H522.1334l-5.89176-17.60542h4.57111l3.42752,11.49924,3.715-11.49924h4.32095l3.57047,11.64219,3.60782-11.64219ZM100.51117,230.89246V100.50472h20.97937V230.89246ZM266.153,201l-6.34654-18.567H234.97638L205.2243,100.50472H183.88148L136.71224,230.89246h21.30438L168.77784,201h51.31959l10.63321,29.8925h21.84174L241.68541,201ZM175.7577,182.46582l18.88461-52.86624,18.64556,52.83336ZM400.16511,201l-6.34654-18.567H368.9885l-29.75209-81.92822H317.8936L270.72435,230.89246h21.30439L302.78995,201h51.31959l10.63321,29.8925H386.5845L375.69752,201Zm-90.3953-18.53414,18.88461-52.86624L347.3,182.43294Z" fill="#2ed1f7"/></svg>